<svg xmlns="http://www.w3.org/2000/svg" xmlns:xlink="http://www.w3.org/1999/xlink" width="872" height="613.04"><rect width="872" height="613.04" rx="5" ry="5" class="a"/><svg y="0%" x="0%"><circle cx="20" cy="20" r="6" fill="#ff5f58"/><circle cx="40" cy="20" r="6" fill="#ffbd2e"/><circle cx="60" cy="20" r="6" fill="#18c132"/></svg><svg height="521.04" viewBox="0 0 80 52.104" width="800" x="31" xmlns="http://www.w3.org/2000/svg" xmlns:xlink="http://www.w3.org/1999/xlink" y="66"><style>@keyframes o{0%{transform:translateX(0)}1.59%{transform:translateX(-80px)}4.16%{transform:translateX(-160px)}4.2%{transform:translateX(-240px)}10.33%{transform:translateX(-320px)}10.37%{transform:translateX(-400px)}18.05%{transform:translateX(-480px)}18.09%{transform:translateX(-560px)}25.78%{transform:translateX(-640px)}25.82%{transform:translateX(-720px)}30.93%{transform:translateX(-800px)}30.96%{transform:translateX(-880px)}41.17%{transform:translateX(-1040px)}41.21%{transform:translateX(-1120px)}51.42%{transform:translateX(-1200px)}51.43%{transform:translateX(-1280px)}61.63%{transform:translateX(-1360px)}69.3%{transform:translateX(-1440px)}69.31%{transform:translateX(-1520px)}76.97%{transform:translateX(-1600px)}77%{transform:translateX(-1680px)}87.21%{transform:translateX(-1760px)}87.25%{transform:translateX(-1840px)}to{transform:translateX(-1920px)}}.a{fill:#282d35}.f{fill:#b9c0cb}.f,.g,.j{white-space:pre}.g{fill:#b9c0cb;font-weight:700}.j{fill:#73bef3}</style><g font-family="Monaco,Consolas,Menlo,'Bitstream Vera Sans Mono','Powerline Symbols',monospace" font-size="1.67"><defs><symbol id="1"><text y="1.67" class="f">────────────────────────────────────────────</text></symbol><symbol id="2"><text x="2.004" y="1.67" class="f">tl</text><text x="5.01" y="1.67" class="f">—</text><text x="7.014" y="1.67" class="f">Git-native</text><text x="18.036" y="1.67" class="f">task</text><text x="23.046" y="1.67" class="f">ledger</text></symbol><symbol id="3"><text y="1.67" class="f">$</text><text x="2.004" y="1.67" class="f">tl</text><text x="5.01" y="1.67" class="f">init</text></symbol><symbol id="4"><text y="1.67" class="f">Initialized</text><text x="12.024" y="1.67" class="f">task</text><text x="17.034" y="1.67" class="f">ledger</text><text x="24.048" y="1.67" class="f">at</text><text x="27.054" y="1.67" class="f">/tmp/tmp.CEidGwBiJ4/.tl</text></symbol><symbol id="5"><text y="1.67" class="f">Tip:</text><text x="5.01" y="1.67" class="f">run</text><text x="9.018" y="1.67" class="f">`tl</text><text x="13.026" y="1.67" class="f">completion</text><text x="24.048" y="1.67" class="f">--install`</text><text x="35.07" y="1.67" class="f">to</text><text x="38.076" y="1.67" class="f">enable</text><text x="45.09" y="1.67" class="f">TAB</text><text x="49.098" y="1.67" class="f">completion</text><text x="60.12" y="1.67" class="f">for</text><text x="64.128" y="1.67" class="f">task</text><text x="69.138" y="1.67" class="f">IDs.</text></symbol><symbol id="6"><text y="1.67" class="f">$</text><text x="2.004" y="1.67" class="f">tl</text><text x="5.01" y="1.67" class="f">create</text><text x="12.024" y="1.67" class="f">&quot;Add</text><text x="17.034" y="1.67" class="f">login</text><text x="23.046" y="1.67" class="f">form</text><text x="28.056" y="1.67" class="f">validation&quot;</text><text x="40.08" y="1.67" class="f">-p</text><text x="43.086" y="1.67" class="f">high</text><text x="48.096" y="1.67" class="f">-d</text><text x="51.102" y="1.67" class="f">&quot;Validate</text><text x="61.122" y="1.67" class="f">email</text><text x="67.134" y="1.67" class="f">and</text><text x="71.142" y="1.67" class="f">password</text></symbol><symbol id="7"><text y="1.67" class="f">fields&quot;</text></symbol><symbol id="8"><text y="1.67" class="f">Created</text><text x="8.016" y="1.67" class="f">task</text><text x="13.026" y="1.67" class="f">task-hts</text></symbol><symbol id="9"><text y="1.67" class="f">$</text><text x="2.004" y="1.67" class="f">tl</text><text x="5.01" y="1.67" class="f">create</text><text x="12.024" y="1.67" class="f">&quot;Refactor</text><text x="22.044" y="1.67" class="f">auth</text><text x="27.054" y="1.67" class="f">error</text><text x="33.066" y="1.67" class="f">handling&quot;</text><text x="43.086" y="1.67" class="f">-t</text><text x="46.092" y="1.67" class="f">chore</text><text x="52.104" y="1.67" class="f">-p</text><text x="55.11" y="1.67" class="f">medium</text><text x="62.124" y="1.67" class="f">--tag</text><text x="68.136" y="1.67" class="f">auth</text><text x="73.146" y="1.67" class="f">--tag</text><text x="79.158" y="1.67" class="f">b</text></symbol><symbol id="10"><text y="1.67" class="f">ackend</text></symbol><symbol id="11"><text y="1.67" class="f">Created</text><text x="8.016" y="1.67" class="f">task</text><text x="13.026" y="1.67" class="f">task-qi7</text></symbol><symbol id="12"><text y="1.67" class="f">$</text><text x="2.004" y="1.67" class="f">tl</text><text x="5.01" y="1.67" class="f">dep</text><text x="9.018" y="1.67" class="f">add</text><text x="13.026" y="1.67" class="f">task-qi7</text><text x="22.044" y="1.67" class="f">--on</text><text x="27.054" y="1.67" class="f">task-hts</text></symbol><symbol id="13"><text y="1.67" class="f">(dependency</text><text x="12.024" y="1.67" class="f">added)</text></symbol><symbol id="14"><text y="1.67" class="f">$</text><text x="2.004" y="1.67" class="f">tl</text><text x="5.01" y="1.67" class="f">show</text><text x="10.02" y="1.67" class="f">task-hts</text></symbol><symbol id="15"><text y="1.67" class="f">ID:</text><text x="4.008" y="1.67" class="g">task-hts</text></symbol><symbol id="16"><text y="1.67" class="f">Title:</text><text x="7.014" y="1.67" class="g">Add</text><text x="11.022" y="1.67" class="g">login</text><text x="17.034" y="1.67" class="g">form</text><text x="22.044" y="1.67" class="g">validation</text></symbol><symbol id="17"><text y="1.67" class="f">Status:</text><text x="8.016" y="1.67" style="white-space:pre" fill="#a8cc8c" font-weight="700">open</text></symbol><symbol id="18"><text y="1.67" class="f">Priority:</text><text x="10.02" y="1.67" style="white-space:pre" fill="#e88388" font-weight="700">high</text></symbol><symbol id="19"><text y="1.67" class="f">Depends</text><text x="8.016" y="1.67" class="f">On:</text><text x="12.024" y="1.67" class="g">none</text></symbol><symbol id="20"><text y="1.67" class="f">References:</text><text x="12.024" y="1.67" class="g">none</text></symbol><symbol id="21"><text y="1.67" class="f">Claim:</text><text x="7.014" y="1.67" class="g">none</text></symbol><symbol id="22"><text y="1.67" class="j">##</text><text x="3.006" y="1.67" class="j">Description</text></symbol><symbol id="23"><text y="1.67" class="f">Validate</text><text x="9.018" y="1.67" class="f">email</text><text x="15.03" y="1.67" class="f">and</text><text x="19.038" y="1.67" class="f">password</text><text x="28.056" y="1.67" class="f">fields</text></symbol><symbol id="24"><text x="2.004" y="1.67" class="f">Agent</text><text x="8.016" y="1.67" class="f">checks</text><text x="15.03" y="1.67" class="f">for</text><text x="19.038" y="1.67" class="f">available</text><text x="29.058" y="1.67" class="f">work</text></symbol><symbol id="25"><text y="1.67" class="f">$</text><text x="2.004" y="1.67" class="f">tl</text><text x="5.01" y="1.67" class="f">ready</text><text x="11.022" y="1.67" class="f">--json</text></symbol><symbol id="26"><text y="1.67" class="f">[</text></symbol><symbol id="27"><text x="2.004" y="1.67" class="f">{</text></symbol><symbol id="28"><text x="4.008" y="1.67" class="f">&quot;id&quot;:</text><text x="10.02" y="1.67" class="f">&quot;task-hts&quot;,</text></symbol><symbol id="29"><text x="4.008" y="1.67" class="f">&quot;title&quot;:</text><text x="13.026" y="1.67" class="f">&quot;Add</text><text x="18.036" y="1.67" class="f">login</text><text x="24.048" y="1.67" class="f">form</text><text x="29.058" y="1.67" class="f">validation&quot;,</text></symbol><symbol id="30"><text x="4.008" y="1.67" class="f">&quot;status&quot;:</text><text x="14.028" y="1.67" class="f">&quot;open&quot;,</text></symbol><symbol id="31"><text x="4.008" y="1.67" class="f">&quot;priority&quot;:</text><text x="16.032" y="1.67" class="f">&quot;high&quot;,</text></symbol><symbol id="32"><text x="4.008" y="1.67" class="f">&quot;created_at&quot;:</text><text x="18.036" y="1.67" class="f">&quot;2026-05-29T19:08:54Z&quot;,</text></symbol><symbol id="33"><text x="4.008" y="1.67" class="f">&quot;updated_at&quot;:</text><text x="18.036" y="1.67" class="f">&quot;2026-05-29T19:08:54Z&quot;,</text></symbol><symbol id="34"><text x="4.008" y="1.67" class="f">&quot;created_by&quot;:</text><text x="18.036" y="1.67" class="f">&quot;human&quot;,</text></symbol><symbol id="35"><text x="4.008" y="1.67" class="f">&quot;assignee&quot;:</text><text x="16.032" y="1.67" class="f">null,</text></symbol><symbol id="36"><text x="4.008" y="1.67" class="f">&quot;depends_on&quot;:</text><text x="18.036" y="1.67" class="f">[],</text></symbol><symbol id="37"><text x="4.008" y="1.67" class="f">&quot;claim&quot;:</text><text x="13.026" y="1.67" class="f">{</text></symbol><symbol id="38"><text x="6.012" y="1.67" class="f">&quot;actor&quot;:</text><text x="15.03" y="1.67" class="f">null,</text></symbol><symbol id="39"><text x="6.012" y="1.67" class="f">&quot;claimed_at&quot;:</text><text x="20.04" y="1.67" class="f">null,</text></symbol><symbol id="40"><text x="6.012" y="1.67" class="f">&quot;expires_at&quot;:</text><text x="20.04" y="1.67" class="f">null,</text></symbol><symbol id="41"><text x="6.012" y="1.67" class="f">&quot;heartbeat_at&quot;:</text><text x="22.044" y="1.67" class="f">null</text></symbol><symbol id="42"><text x="4.008" y="1.67" class="f">},</text></symbol><symbol id="43"><text x="4.008" y="1.67" class="f">&quot;tags&quot;:</text><text x="12.024" y="1.67" class="f">[],</text></symbol><symbol id="44"><text x="4.008" y="1.67" class="f">&quot;description&quot;:</text><text x="19.038" y="1.67" class="f">&quot;Validate</text><text x="29.058" y="1.67" class="f">email</text><text x="35.07" y="1.67" class="f">and</text><text x="39.078" y="1.67" class="f">password</text><text x="48.096" y="1.67" class="f">fields&quot;</text></symbol><symbol id="45"><text x="2.004" y="1.67" class="f">}</text></symbol><symbol id="46"><text y="1.67" class="f">]</text></symbol><symbol id="47"><text y="1.67" class="f">$</text><text x="2.004" y="1.67" class="f">tl</text><text x="5.01" y="1.67" class="f">claim</text><text x="11.022" y="1.67" class="f">task-hts</text></symbol><symbol id="48"><text y="1.67" class="f">Claimed</text><text x="8.016" y="1.67" class="f">task</text><text x="13.026" y="1.67" class="f">task-hts</text><text x="22.044" y="1.67" class="f">(main-pc,</text><text x="32.064" y="1.67" class="f">expires</text><text x="40.08" y="1.67" class="f">2026-05-29T20:09:02Z)</text></symbol><symbol id="49"><text y="1.67" class="f">$</text><text x="2.004" y="1.67" class="f">tl</text><text x="5.01" y="1.67" class="f">note</text><text x="10.02" y="1.67" class="f">task-hts</text><text x="19.038" y="1.67" class="f">-m</text><text x="22.044" y="1.67" class="f">&quot;Added</text><text x="29.058" y="1.67" class="f">client-side</text><text x="41.082" y="1.67" class="f">validation;</text><text x="53.106" y="1.67" class="f">wiring</text><text x="60.12" y="1.67" class="f">backend</text><text x="68.136" y="1.67" class="f">next&quot;</text></symbol><symbol id="50"><text y="1.67" class="f">$</text><text x="2.004" y="1.67" class="f">tl</text><text x="5.01" y="1.67" class="f">close</text><text x="11.022" y="1.67" class="f">task-hts</text></symbol><symbol id="51"><text y="1.67" class="f">Closed</text><text x="7.014" y="1.67" class="f">task</text><text x="12.024" y="1.67" class="f">task-hts</text></symbol><symbol id="52"><text y="1.67" class="f">$</text><text x="2.004" y="1.67" class="f">tl</text><text x="5.01" y="1.67" class="f">list</text><text x="10.02" y="1.67" class="f">--all</text></symbol><symbol id="53"><text y="1.67" class="f">ID</text><text x="10.02" y="1.67" class="f">Status</text><text x="18.036" y="1.67" class="f">Priority</text><text x="28.056" y="1.67" class="f">Claimed</text><text x="36.072" y="1.67" class="f">By</text><text x="40.08" y="1.67" class="f">Title</text></symbol><symbol id="54"><text y="1.67" class="f">task-qi7</text><text x="10.02" y="1.67" class="f">open</text><text x="18.036" y="1.67" style="white-space:pre" fill="#dbab79">medium</text><text x="28.056" y="1.67" class="f">-</text><text x="40.08" y="1.67" class="f">Refactor</text><text x="49.098" y="1.67" class="f">auth</text><text x="54.108" y="1.67" class="f">error</text><text x="60.12" y="1.67" class="f">handling</text></symbol><symbol id="55"><text y="1.67" class="f">task-hts</text><text x="10.02" y="1.67" class="f">done</text><text x="18.036" y="1.67" style="white-space:pre" fill="#e88388">high</text><text x="28.056" y="1.67" class="f">-</text><text x="40.08" y="1.67" class="f">Add</text><text x="44.088" y="1.67" class="f">login</text><text x="50.1" y="1.67" class="f">form</text><text x="55.11" y="1.67" class="f">validation</text></symbol><symbol id="56"><text y="1.67" class="f">$</text><text x="2.004" y="1.67" class="f">tl</text><text x="5.01" y="1.67" class="f">history</text><text x="13.026" y="1.67" class="f">task-hts</text></symbol><symbol id="57"><text y="1.67" class="f">2026-05-29T19:08:54Z</text><text x="24.048" y="1.67" class="f">created</text><text x="32.064" y="1.67" class="f">task-hts</text><text x="48.096" y="1.67" class="f">human</text></symbol><symbol id="58"><text y="1.67" class="f">2026-05-29T19:09:02Z</text><text x="24.048" y="1.67" class="f">claimed</text><text x="32.064" y="1.67" class="f">task-hts</text><text x="48.096" y="1.67" class="f">main-pc</text></symbol><symbol id="59"><text y="1.67" class="f">2026-05-29T19:09:04Z</text><text x="24.048" y="1.67" class="f">note_added</text><text x="40.08" y="1.67" class="f">task-hts</text><text x="56.112" y="1.67" class="f">main-pc</text></symbol><symbol id="60"><text y="1.67" class="f">2026-05-29T19:09:05Z</text><text x="24.048" y="1.67" class="f">closed</text><text x="32.064" y="1.67" class="f">task-hts</text><text x="48.096" y="1.67" class="f">main-pc</text></symbol><symbol id="a"><path fill="transparent" d="M0 0h80v24H0z"/></symbol><symbol id="b"><path fill="#6f7683" d="M0 0h1.102v2.171H0z"/></symbol></defs><path class="a" d="M0 0h80v52.104H0z"/><g style="animation-duration:19.620656s;animation-iteration-count:infinite;animation-name:o;animation-timing-function:steps(1,end)"><svg width="2000"><svg><use xlink:href="#a"/><use xlink:href="#b" x="-.004"/></svg><svg x="80"><use xlink:href="#a"/><use xlink:href="#b" x="-.004" y="8.659"/><use xlink:href="#1"/><use xlink:href="#2" y="2.171"/><use xlink:href="#1" y="4.342"/></svg><svg x="160"><use xlink:href="#a"/><use xlink:href="#b" x="-.004" y="10.83"/><use xlink:href="#1"/><use xlink:href="#2" y="2.171"/><use xlink:href="#1" y="4.342"/><use xlink:href="#3" y="8.684"/></svg><svg x="240"><use xlink:href="#a"/><use xlink:href="#b" x="-.004" y="15.172"/><use xlink:href="#1"/><use xlink:href="#2" y="2.171"/><use xlink:href="#1" y="4.342"/><use xlink:href="#3" y="8.684"/><use xlink:href="#4" y="10.855"/><use xlink:href="#5" y="13.026"/></svg><svg x="320"><use xlink:href="#a"/><use xlink:href="#b" x="-.004" y="21.685"/><use xlink:href="#1"/><use xlink:href="#2" y="2.171"/><use xlink:href="#1" y="4.342"/><use xlink:href="#3" y="8.684"/><use xlink:href="#4" y="10.855"/><use xlink:href="#5" y="13.026"/><use xlink:href="#6" y="17.368"/><use xlink:href="#7" y="19.539"/></svg><svg x="400"><use xlink:href="#a"/><use xlink:href="#b" x="-.004" y="23.856"/><use xlink:href="#1"/><use xlink:href="#2" y="2.171"/><use xlink:href="#1" y="4.342"/><use xlink:href="#3" y="8.684"/><use xlink:href="#4" y="10.855"/><use xlink:href="#5" y="13.026"/><use xlink:href="#6" y="17.368"/><use xlink:href="#7" y="19.539"/><use xlink:href="#8" y="21.71"/></svg><svg x="480"><use xlink:href="#a"/><use xlink:href="#b" x="-.004" y="30.369"/><use xlink:href="#1"/><use xlink:href="#2" y="2.171"/><use xlink:href="#1" y="4.342"/><use xlink:href="#3" y="8.684"/><use xlink:href="#4" y="10.855"/><use xlink:href="#5" y="13.026"/><use xlink:href="#6" y="17.368"/><use xlink:href="#7" y="19.539"/><use xlink:href="#8" y="21.71"/><use xlink:href="#9" y="26.052"/><use xlink:href="#10" y="28.223"/></svg><svg x="560"><use xlink:href="#a"/><use xlink:href="#b" x="-.004" y="32.54"/><use xlink:href="#1"/><use xlink:href="#2" y="2.171"/><use xlink:href="#1" y="4.342"/><use xlink:href="#3" y="8.684"/><use xlink:href="#4" y="10.855"/><use xlink:href="#5" y="13.026"/><use xlink:href="#6" y="17.368"/><use xlink:href="#7" y="19.539"/><use xlink:href="#8" y="21.71"/><use xlink:href="#9" y="26.052"/><use xlink:href="#10" y="28.223"/><use xlink:href="#11" y="30.394"/></svg><svg x="640"><use xlink:href="#a"/><use xlink:href="#b" x="-.004" y="36.882"/><use xlink:href="#1"/><use xlink:href="#2" y="2.171"/><use xlink:href="#1" y="4.342"/><use xlink:href="#3" y="8.684"/><use xlink:href="#4" y="10.855"/><use xlink:href="#5" y="13.026"/><use xlink:href="#6" y="17.368"/><use xlink:href="#7" y="19.539"/><use xlink:href="#8" y="21.71"/><use xlink:href="#9" y="26.052"/><use xlink:href="#10" y="28.223"/><use xlink:href="#11" y="30.394"/><use xlink:href="#12" y="34.736"/></svg><svg x="720"><use xlink:href="#a"/><use xlink:href="#b" x="-.004" y="39.053"/><use xlink:href="#1"/><use xlink:href="#2" y="2.171"/><use xlink:href="#1" y="4.342"/><use xlink:href="#3" y="8.684"/><use xlink:href="#4" y="10.855"/><use xlink:href="#5" y="13.026"/><use xlink:href="#6" y="17.368"/><use xlink:href="#7" y="19.539"/><use xlink:href="#8" y="21.71"/><use xlink:href="#9" y="26.052"/><use xlink:href="#10" y="28.223"/><use xlink:href="#11" y="30.394"/><use xlink:href="#12" y="34.736"/><use xlink:href="#13" y="36.907"/></svg><svg x="800"><use xlink:href="#a"/><use xlink:href="#b" x="-.004" y="43.395"/><use xlink:href="#1"/><use xlink:href="#2" y="2.171"/><use xlink:href="#1" y="4.342"/><use xlink:href="#3" y="8.684"/><use xlink:href="#4" y="10.855"/><use xlink:href="#5" y="13.026"/><use xlink:href="#6" y="17.368"/><use xlink:href="#7" y="19.539"/><use xlink:href="#8" y="21.71"/><use xlink:href="#9" y="26.052"/><use xlink:href="#10" y="28.223"/><use xlink:href="#11" y="30.394"/><use xlink:href="#12" y="34.736"/><use xlink:href="#13" y="36.907"/><use xlink:href="#14" y="41.249"/></svg><svg x="880"><use xlink:href="#a"/><use xlink:href="#b" x="-.004" y="49.908"/><use xlink:href="#6"/><use xlink:href="#7" y="2.171"/><use xlink:href="#8" y="4.342"/><use xlink:href="#9" y="8.684"/><use xlink:href="#10" y="10.855"/><use xlink:href="#11" y="13.026"/><use xlink:href="#12" y="17.368"/><use xlink:href="#13" y="19.539"/><use xlink:href="#14" y="23.881"/><use xlink:href="#15" y="26.052"/><use xlink:href="#16" y="28.223"/><use xlink:href="#17" y="30.394"/><use xlink:href="#18" y="32.565"/><use xlink:href="#19" y="34.736"/><use xlink:href="#20" y="36.907"/><use xlink:href="#21" y="39.078"/><use xlink:href="#22" y="43.42"/><use xlink:href="#23" y="47.762"/></svg><svg x="960"><use xlink:href="#a"/><use xlink:href="#b" x="-.004" y="49.908"/><use xlink:href="#10"/><use xlink:href="#11" y="2.171"/><use xlink:href="#12" y="6.513"/><use xlink:href="#13" y="8.684"/><use xlink:href="#14" y="13.026"/><use xlink:href="#15" y="15.197"/><use xlink:href="#16" y="17.368"/><use xlink:href="#17" y="19.539"/><use xlink:href="#18" y="21.71"/><use xlink:href="#19" y="23.881"/><use xlink:href="#20" y="26.052"/><use xlink:href="#21" y="28.223"/><use xlink:href="#22" y="32.565"/><use xlink:href="#23" y="36.907"/><use xlink:href="#1" y="41.249"/><use xlink:href="#24" y="43.42"/><use xlink:href="#1" y="45.591"/></svg><svg x="1040"><use xlink:href="#a"/><use xlink:href="#b" x="-.004" y="49.908"/><use xlink:href="#11"/><use xlink:href="#12" y="4.342"/><use xlink:href="#13" y="6.513"/><use xlink:href="#14" y="10.855"/><use xlink:href="#15" y="13.026"/><use xlink:href="#16" y="15.197"/><use xlink:href="#17" y="17.368"/><use xlink:href="#18" y="19.539"/><use xlink:href="#19" y="21.71"/><use xlink:href="#20" y="23.881"/><use xlink:href="#21" y="26.052"/><use xlink:href="#22" y="30.394"/><use xlink:href="#23" y="34.736"/><use xlink:href="#1" y="39.078"/><use xlink:href="#24" y="41.249"/><use xlink:href="#1" y="43.42"/><use xlink:href="#25" y="47.762"/></svg><svg x="1120"><use xlink:href="#a"/><use xlink:href="#b" x="-.004" y="49.908"/><use xlink:href="#25" y="2.171"/><use xlink:href="#26" y="4.342"/><use xlink:href="#27" y="6.513"/><use xlink:href="#28" y="8.684"/><use xlink:href="#29" y="10.855"/><use xlink:href="#30" y="13.026"/><use xlink:href="#31" y="15.197"/><use xlink:href="#32" y="17.368"/><use xlink:href="#33" y="19.539"/><use xlink:href="#34" y="21.71"/><use xlink:href="#35" y="23.881"/><use xlink:href="#36" y="26.052"/><use xlink:href="#37" y="28.223"/><use xlink:href="#38" y="30.394"/><use xlink:href="#39" y="32.565"/><use xlink:href="#40" y="34.736"/><use xlink:href="#41" y="36.907"/><use xlink:href="#42" y="39.078"/><use xlink:href="#43" y="41.249"/><use xlink:href="#44" y="43.42"/><use xlink:href="#45" y="45.591"/><use xlink:href="#46" y="47.762"/></svg><svg x="1200"><use xlink:href="#a"/><use xlink:href="#b" x="-.004" y="49.908"/><use xlink:href="#26"/><use xlink:href="#27" y="2.171"/><use xlink:href="#28" y="4.342"/><use xlink:href="#29" y="6.513"/><use xlink:href="#30" y="8.684"/><use xlink:href="#31" y="10.855"/><use xlink:href="#32" y="13.026"/><use xlink:href="#33" y="15.197"/><use xlink:href="#34" y="17.368"/><use xlink:href="#35" y="19.539"/><use xlink:href="#36" y="21.71"/><use xlink:href="#37" y="23.881"/><use xlink:href="#38" y="26.052"/><use xlink:href="#39" y="28.223"/><use xlink:href="#40" y="30.394"/><use xlink:href="#41" y="32.565"/><use xlink:href="#42" y="34.736"/><use xlink:href="#43" y="36.907"/><use xlink:href="#44" y="39.078"/><use xlink:href="#45" y="41.249"/><use xlink:href="#46" y="43.42"/><use xlink:href="#47" y="47.762"/></svg><svg x="1280"><use xlink:href="#a"/><use xlink:href="#b" x="-.004" y="49.908"/><use xlink:href="#27"/><use xlink:href="#28" y="2.171"/><use xlink:href="#29" y="4.342"/><use xlink:href="#30" y="6.513"/><use xlink:href="#31" y="8.684"/><use xlink:href="#32" y="10.855"/><use xlink:href="#33" y="13.026"/><use xlink:href="#34" y="15.197"/><use xlink:href="#35" y="17.368"/><use xlink:href="#36" y="19.539"/><use xlink:href="#37" y="21.71"/><use xlink:href="#38" y="23.881"/><use xlink:href="#39" y="26.052"/><use xlink:href="#40" y="28.223"/><use xlink:href="#41" y="30.394"/><use xlink:href="#42" y="32.565"/><use xlink:href="#43" y="34.736"/><use xlink:href="#44" y="36.907"/><use xlink:href="#45" y="39.078"/><use xlink:href="#46" y="41.249"/><use xlink:href="#47" y="45.591"/><use xlink:href="#48" y="47.762"/></svg><svg x="1360"><use xlink:href="#a"/><use xlink:href="#b" x="-.004" y="49.908"/><use xlink:href="#29"/><use xlink:href="#30" y="2.171"/><use xlink:href="#31" y="4.342"/><use xlink:href="#32" y="6.513"/><use xlink:href="#33" y="8.684"/><use xlink:href="#34" y="10.855"/><use xlink:href="#35" y="13.026"/><use xlink:href="#36" y="15.197"/><use xlink:href="#37" y="17.368"/><use xlink:href="#38" y="19.539"/><use xlink:href="#39" y="21.71"/><use xlink:href="#40" y="23.881"/><use xlink:href="#41" y="26.052"/><use xlink:href="#42" y="28.223"/><use xlink:href="#43" y="30.394"/><use xlink:href="#44" y="32.565"/><use xlink:href="#45" y="34.736"/><use xlink:href="#46" y="36.907"/><use xlink:href="#47" y="41.249"/><use xlink:href="#48" y="43.42"/><use xlink:href="#49" y="47.762"/></svg><svg x="1440"><use xlink:href="#a"/><use xlink:href="#b" x="-.004" y="49.908"/><use xlink:href="#31"/><use xlink:href="#32" y="2.171"/><use xlink:href="#33" y="4.342"/><use xlink:href="#34" y="6.513"/><use xlink:href="#35" y="8.684"/><use xlink:href="#36" y="10.855"/><use xlink:href="#37" y="13.026"/><use xlink:href="#38" y="15.197"/><use xlink:href="#39" y="17.368"/><use xlink:href="#40" y="19.539"/><use xlink:href="#41" y="21.71"/><use xlink:href="#42" y="23.881"/><use xlink:href="#43" y="26.052"/><use xlink:href="#44" y="28.223"/><use xlink:href="#45" y="30.394"/><use xlink:href="#46" y="32.565"/><use xlink:href="#47" y="36.907"/><use xlink:href="#48" y="39.078"/><use xlink:href="#49" y="43.42"/><use xlink:href="#50" y="47.762"/></svg><svg x="1520"><use xlink:href="#a"/><use xlink:href="#b" x="-.004" y="49.908"/><use xlink:href="#32"/><use xlink:href="#33" y="2.171"/><use xlink:href="#34" y="4.342"/><use xlink:href="#35" y="6.513"/><use xlink:href="#36" y="8.684"/><use xlink:href="#37" y="10.855"/><use xlink:href="#38" y="13.026"/><use xlink:href="#39" y="15.197"/><use xlink:href="#40" y="17.368"/><use xlink:href="#41" y="19.539"/><use xlink:href="#42" y="21.71"/><use xlink:href="#43" y="23.881"/><use xlink:href="#44" y="26.052"/><use xlink:href="#45" y="28.223"/><use xlink:href="#46" y="30.394"/><use xlink:href="#47" y="34.736"/><use xlink:href="#48" y="36.907"/><use xlink:href="#49" y="41.249"/><use xlink:href="#50" y="45.591"/><use xlink:href="#51" y="47.762"/></svg><svg x="1600"><use xlink:href="#a"/><use xlink:href="#b" x="-.004" y="49.908"/><use xlink:href="#34"/><use xlink:href="#35" y="2.171"/><use xlink:href="#36" y="4.342"/><use xlink:href="#37" y="6.513"/><use xlink:href="#38" y="8.684"/><use xlink:href="#39" y="10.855"/><use xlink:href="#40" y="13.026"/><use xlink:href="#41" y="15.197"/><use xlink:href="#42" y="17.368"/><use xlink:href="#43" y="19.539"/><use xlink:href="#44" y="21.71"/><use xlink:href="#45" y="23.881"/><use xlink:href="#46" y="26.052"/><use xlink:href="#47" y="30.394"/><use xlink:href="#48" y="32.565"/><use xlink:href="#49" y="36.907"/><use xlink:href="#50" y="41.249"/><use xlink:href="#51" y="43.42"/><use xlink:href="#52" y="47.762"/></svg><svg x="1680"><use xlink:href="#a"/><use xlink:href="#b" x="-.004" y="49.908"/><use xlink:href="#37"/><use xlink:href="#38" y="2.171"/><use xlink:href="#39" y="4.342"/><use xlink:href="#40" y="6.513"/><use xlink:href="#41" y="8.684"/><use xlink:href="#42" y="10.855"/><use xlink:href="#43" y="13.026"/><use xlink:href="#44" y="15.197"/><use xlink:href="#45" y="17.368"/><use xlink:href="#46" y="19.539"/><use xlink:href="#47" y="23.881"/><use xlink:href="#48" y="26.052"/><use xlink:href="#49" y="30.394"/><use xlink:href="#50" y="34.736"/><use xlink:href="#51" y="36.907"/><use xlink:href="#52" y="41.249"/><use xlink:href="#53" y="43.42"/><use xlink:href="#54" y="45.591"/><use xlink:href="#55" y="47.762"/></svg><svg x="1760"><use xlink:href="#a"/><use xlink:href="#b" x="-.004" y="49.908"/><use xlink:href="#39"/><use xlink:href="#40" y="2.171"/><use xlink:href="#41" y="4.342"/><use xlink:href="#42" y="6.513"/><use xlink:href="#43" y="8.684"/><use xlink:href="#44" y="10.855"/><use xlink:href="#45" y="13.026"/><use xlink:href="#46" y="15.197"/><use xlink:href="#47" y="19.539"/><use xlink:href="#48" y="21.71"/><use xlink:href="#49" y="26.052"/><use xlink:href="#50" y="30.394"/><use xlink:href="#51" y="32.565"/><use xlink:href="#52" y="36.907"/><use xlink:href="#53" y="39.078"/><use xlink:href="#54" y="41.249"/><use xlink:href="#55" y="43.42"/><use xlink:href="#56" y="47.762"/></svg><svg x="1840"><use xlink:href="#a"/><use xlink:href="#b" x="-.004" y="49.908"/><use xlink:href="#43"/><use xlink:href="#44" y="2.171"/><use xlink:href="#45" y="4.342"/><use xlink:href="#46" y="6.513"/><use xlink:href="#47" y="10.855"/><use xlink:href="#48" y="13.026"/><use xlink:href="#49" y="17.368"/><use xlink:href="#50" y="21.71"/><use xlink:href="#51" y="23.881"/><use xlink:href="#52" y="28.223"/><use xlink:href="#53" y="30.394"/><use xlink:href="#54" y="32.565"/><use xlink:href="#55" y="34.736"/><use xlink:href="#56" y="39.078"/><use xlink:href="#57" y="41.249"/><use xlink:href="#58" y="43.42"/><use xlink:href="#59" y="45.591"/><use xlink:href="#60" y="47.762"/></svg><svg x="1920"><use xlink:href="#a"/><use xlink:href="#b" x="-.004" y="49.908"/><use xlink:href="#50" y="2.171"/><use xlink:href="#51" y="4.342"/><use xlink:href="#52" y="8.684"/><use xlink:href="#53" y="10.855"/><use xlink:href="#54" y="13.026"/><use xlink:href="#55" y="15.197"/><use xlink:href="#56" y="19.539"/><use xlink:href="#57" y="21.71"/><use xlink:href="#58" y="23.881"/><use xlink:href="#59" y="26.052"/><use xlink:href="#60" y="28.223"/><use xlink:href="#1" y="32.565"/><text x="2.004" y="36.406" class="f">✓</text><text x="4.008" y="36.406" class="f">Human</text><text x="10.02" y="36.406" class="f">creates</text><text x="18.036" y="36.406" class="f">work</text><text x="2.004" y="38.577" class="f">✓</text><text x="4.008" y="38.577" class="f">Agent</text><text x="10.02" y="38.577" class="f">discovers</text><text x="20.04" y="38.577" class="f">via</text><text x="24.048" y="38.577" class="f">--json</text><text x="2.004" y="40.748" class="f">✓</text><text x="4.008" y="40.748" class="f">Claims</text><text x="11.022" y="40.748" class="f">with</text><text x="16.032" y="40.748" class="f">lease</text><text x="22.044" y="40.748" class="f">→</text><text x="24.048" y="40.748" class="f">notes</text><text x="30.06" y="40.748" class="f">→</text><text x="32.064" y="40.748" class="f">closes</text><text x="2.004" y="42.919" class="f">✓</text><text x="4.008" y="42.919" class="f">Full</text><text x="9.018" y="42.919" class="f">audit</text><text x="15.03" y="42.919" class="f">trail</text><text x="21.042" y="42.919" class="f">in</text><text x="24.048" y="42.919" class="f">history</text><text x="2.004" y="45.09" class="f">✓</text><text x="4.008" y="45.09" class="f">Git-native,</text><text x="16.032" y="45.09" class="f">no</text><text x="19.038" y="45.09" class="f">daemon</text><use xlink:href="#1" y="45.591"/></svg></svg></g></g></svg></svg>